<svg xmlns="http://www.w3.org/2000/svg" height="1150" preserveAspectRatio="none" style="width:1032px;height:1150px" width="1032"><defs><filter height="300%" id="a" width="300%" x="-1" y="-1"><feGaussianBlur result="blurOut" stdDeviation="2"/><feColorMatrix in="blurOut" result="blurOut2" values="0 0 0 0 0 0 0 0 0 0 0 0 0 0 0 0 0 0 .4 0"/><feOffset dx="4" dy="4" in="blurOut2" result="blurOut3"/><feBlend in="SourceGraphic" in2="blurOut3"/></filter></defs><path fill="#FEFECE" filter="url(#a)" stroke="#a80036" stroke-width="1.5" d="M34.5 154.5h286v176.047h-286z"/><circle cx="156.25" cy="170.5" fill="#ADD1B2" stroke="#a80036" r="11"/><path d="M158.594 166.172c-.938-.438-1.531-.578-2.406-.578-2.625 0-4.625 2.078-4.625 4.797v1.125c0 2.578 2.109 4.468 5 4.468 1.218 0 2.375-.297 3.125-.843.578-.407.906-.86.906-1.25a.864.864 0 00-.86-.844.831.831 0 00-.609.266c-.453.484-.453.484-.64.578-.423.265-1.11.39-1.876.39-2.047 0-3.343-1.094-3.343-2.797v-1.093c0-1.782 1.25-3.094 2.984-3.094.578 0 1.188.156 1.656.406.485.281.656.5.75.906.063.407.094.532.235.657.14.14.375.25.593.25a.92.92 0 00.703-.36c.11-.156.141-.344.141-.765v-1.422c0-.438-.016-.563-.11-.719a.838.838 0 00-.734-.406c-.297 0-.5.094-.718.406l-.172-.078z"/><text font-family="sans-serif" font-size="12" textLength="34" x="176.75" y="174.654">Audio</text><path stroke="#a80036" stroke-width="1.5" d="M35.5 186.5h284"/><circle cx="45.5" cy="197.5" fill="none" stroke="#038048" r="3"/><text font-family="sans-serif" font-size="11" textLength="260" x="54.5" y="200.71">std::vector&lt;sf::SoundBuffer&gt; m_soundBuffers</text><circle cx="45.5" cy="210.305" fill="none" stroke="#038048" r="3"/><text font-family="sans-serif" font-size="11" textLength="190" x="54.5" y="213.515">std::vector&lt;sf::Sound&gt; m_sounds</text><circle cx="45.5" cy="223.109" fill="none" stroke="#038048" r="3"/><text font-family="sans-serif" font-size="11" textLength="164" x="54.5" y="226.32">sf::Music m_backgroundMusic</text><path stroke="#a80036" stroke-width="1.5" d="M35.5 232.914h284"/><circle cx="45.5" cy="243.914" fill="#84BE84" stroke="#038048" r="3"/><text font-family="sans-serif" font-size="11" textLength="135" x="54.5" y="247.125">static Audio&amp; instance()</text><circle cx="45.5" cy="256.719" fill="#84BE84" stroke="#038048" r="3"/><text font-family="sans-serif" font-size="11" textLength="129" x="54.5" y="259.929">playBackgroundMusic()</text><circle cx="45.5" cy="269.523" fill="#84BE84" stroke="#038048" r="3"/><text font-family="sans-serif" font-size="11" textLength="96" x="54.5" y="272.734">void playSound()</text><circle cx="45.5" cy="282.328" fill="#84BE84" stroke="#038048" r="3"/><text font-family="sans-serif" font-size="11" textLength="40" x="54.5" y="285.539">Audio()</text><circle cx="45.5" cy="295.133" fill="#84BE84" stroke="#038048" r="3"/><text font-family="sans-serif" font-size="11" textLength="115" x="54.5" y="298.343">Audio(const Audio&amp;)</text><circle cx="45.5" cy="307.938" fill="#84BE84" stroke="#038048" r="3"/><text font-family="sans-serif" font-size="11" textLength="185" x="54.5" y="311.148">Audio&amp; operator=(const Audio&amp;)</text><circle cx="45.5" cy="320.742" fill="#84BE84" stroke="#038048" r="3"/><text font-family="sans-serif" font-size="11" textLength="117" x="54.5" y="323.953">void loadMusicFiles()</text><path fill="#FEFECE" filter="url(#a)" stroke="#a80036" stroke-width="1.5" d="M356 7h367v470.555H356z"/><circle cx="517.25" cy="23" fill="#ADD1B2" stroke="#a80036" r="11"/><path d="M519.594 18.672c-.938-.438-1.532-.578-2.407-.578-2.625 0-4.625 2.078-4.625 4.797v1.125c0 2.578 2.11 4.468 5 4.468 1.22 0 2.375-.297 3.125-.843.579-.407.907-.86.907-1.25a.864.864 0 00-.86-.844.831.831 0 00-.609.265c-.453.485-.453.485-.64.579-.423.265-1.11.39-1.876.39-2.047 0-3.343-1.093-3.343-2.797v-1.093c0-1.782 1.25-3.094 2.984-3.094.578 0 1.188.156 1.656.406.485.281.657.5.75.906.063.407.094.532.235.657.14.14.375.25.593.25a.92.92 0 00.703-.36c.11-.156.141-.343.141-.765v-1.422c0-.438-.015-.563-.11-.719a.838.838 0 00-.734-.406c-.297 0-.5.093-.718.406l-.172-.078z"/><text font-family="sans-serif" font-size="12" textLength="36" x="537.75" y="27.154">Board</text><path stroke="#a80036" stroke-width="1.5" d="M357 39h365"/><circle cx="367" cy="50" fill="none" stroke="#038048" r="3"/><text font-family="sans-serif" font-size="11" textLength="235" x="376" y="53.21">std::vector&lt;std::string&gt; m_mapTextChars</text><circle cx="367" cy="62.805" fill="none" stroke="#038048" r="3"/><text font-family="sans-serif" font-size="11" textLength="327" x="376" y="66.015">std::vector&lt;std::vector&lt;sf::RectangleShape&gt;&gt; m_theMap</text><circle cx="367" cy="75.609" fill="none" stroke="#038048" r="3"/><text font-family="sans-serif" font-size="11" textLength="166" x="376" y="78.82">unsigned m_h unsigned m_w</text><circle cx="367" cy="88.414" fill="none" stroke="#038048" r="3"/><text font-family="sans-serif" font-size="11" textLength="149" x="376" y="91.624">std::ifstream m_stagesFile</text><circle cx="367" cy="114.023" fill="none" stroke="#038048" r="3"/><text font-family="sans-serif" font-size="11" textLength="290" x="376" y="117.234">std::vector&lt;std::unique_ptr&lt;Enemy&gt;&gt; m_enemies</text><circle cx="367" cy="126.828" fill="none" stroke="#038048" r="3"/><text font-family="sans-serif" font-size="11" textLength="341" x="376" y="130.039">std::vector&lt;std::unique_ptr&lt;StaticObject&gt;&gt; m_staticObjects</text><circle cx="367" cy="139.633" fill="none" stroke="#038048" r="3"/><text font-family="sans-serif" font-size="11" textLength="92" x="376" y="142.843">Player m_player</text><circle cx="367" cy="178.047" fill="none" stroke="#038048" r="3"/><text font-family="sans-serif" font-size="11" textLength="125" x="376" y="181.257">sf::Font m_infoBarFont</text><circle cx="367" cy="190.852" fill="none" stroke="#038048" r="3"/><text font-family="sans-serif" font-size="11" textLength="287" x="376" y="194.062">sf::RectangleShape m_gameBackgroundRectangle</text><circle cx="367" cy="203.656" fill="none" stroke="#038048" r="3"/><text font-family="sans-serif" font-size="11" textLength="195" x="376" y="206.867">sf::Text m_texts[INFO_BAR_ITEMS]</text><circle cx="367" cy="216.461" fill="none" stroke="#038048" r="3"/><text font-family="sans-serif" font-size="11" textLength="226" x="376" y="219.671">sf::Texture m_gameBackgroundTexture</text><circle cx="367" cy="229.266" fill="none" stroke="#038048" r="3"/><text font-family="sans-serif" font-size="11" textLength="120" x="376" y="232.476">float m_texturesSize</text><path stroke="#a80036" stroke-width="1.5" d="M357 239.07h365"/><circle cx="367" cy="250.07" fill="#84BE84" stroke="#038048" r="3"/><text font-family="sans-serif" font-size="11" textLength="41" x="376" y="253.281">Board()</text><circle cx="367" cy="275.68" fill="#84BE84" stroke="#038048" r="3"/><text font-family="sans-serif" font-size="11" textLength="139" x="376" y="278.89">bool readSizeAndTime()</text><circle cx="367" cy="288.484" fill="#84BE84" stroke="#038048" r="3"/><text font-family="sans-serif" font-size="11" textLength="164" x="376" y="291.695">float setBoardOfRectangles()</text><circle cx="367" cy="301.289" fill="#84BE84" stroke="#038048" r="3"/><text font-family="sans-serif" font-size="11" textLength="124" x="376" y="304.5">void allocateObjects()</text><circle cx="367" cy="314.094" fill="#84BE84" stroke="#038048" r="3"/><text font-family="sans-serif" font-size="11" textLength="125" x="376" y="317.304">void openStagesFile()</text><circle cx="367" cy="326.898" fill="#84BE84" stroke="#038048" r="3"/><text font-family="sans-serif" font-size="11" textLength="235" x="376" y="330.109">void readMapTxtFromFileToStringVector()</text><circle cx="367" cy="339.703" fill="#84BE84" stroke="#038048" r="3"/><text font-family="sans-serif" font-size="11" textLength="86" x="376" y="342.914">void setSizes()</text><circle cx="367" cy="352.508" fill="#84BE84" stroke="#038048" r="3"/><text font-family="sans-serif" font-size="11" textLength="212" x="376" y="355.718">int checkForCollisons(MovingObject&amp;)</text><circle cx="367" cy="365.313" fill="#84BE84" stroke="#038048" r="3"/><text font-family="sans-serif" font-size="11" textLength="186" x="376" y="368.523">void addNewEnemy(sf::Vector2f)</text><circle cx="367" cy="378.117" fill="#84BE84" stroke="#038048" r="3"/><text font-family="sans-serif" font-size="11" textLength="230" x="376" y="381.328">void drawAllObjects(sf::RenderWindow&amp;)</text><circle cx="367" cy="390.922" fill="#84BE84" stroke="#038048" r="3"/><text font-family="sans-serif" font-size="11" textLength="110" x="376" y="394.132">void isNewEnemy()</text><circle cx="367" cy="403.727" fill="#84BE84" stroke="#038048" r="3"/><text font-family="sans-serif" font-size="11" textLength="126" x="376" y="406.937">void manageDigging()</text><circle cx="367" cy="416.531" fill="#84BE84" stroke="#038048" r="3"/><text font-family="sans-serif" font-size="11" textLength="116" x="376" y="419.742">void manageTimer()</text><circle cx="367" cy="429.336" fill="#84BE84" stroke="#038048" r="3"/><text font-family="sans-serif" font-size="11" textLength="237" x="376" y="432.546">void printBackground(sf::RenderWindow&amp;)</text><circle cx="367" cy="442.141" fill="#84BE84" stroke="#038048" r="3"/><text font-family="sans-serif" font-size="11" textLength="133" x="376" y="445.351">void setInfoBarValues()</text><circle cx="367" cy="454.945" fill="#84BE84" stroke="#038048" r="3"/><text font-family="sans-serif" font-size="11" textLength="166" x="376" y="458.156">void addNewGift(sf::Vector2f)</text><circle cx="367" cy="467.75" fill="#84BE84" stroke="#038048" r="3"/><text font-family="sans-serif" font-size="11" textLength="168" x="376" y="470.96">void moveMovables(sf::Time)</text><path fill="#FEFECE" filter="url(#a)" stroke="#a80036" stroke-width="1.5" d="M758.5 154.5h260v176.047h-260z"/><circle cx="854.75" cy="170.5" fill="#ADD1B2" stroke="#a80036" r="11"/><path d="M857.094 166.172c-.938-.438-1.532-.578-2.407-.578-2.625 0-4.625 2.078-4.625 4.797v1.125c0 2.578 2.11 4.468 5 4.468 1.22 0 2.375-.297 3.125-.843.579-.407.907-.86.907-1.25a.864.864 0 00-.86-.844.831.831 0 00-.609.266c-.453.484-.453.484-.64.578-.423.265-1.11.39-1.876.39-2.047 0-3.343-1.094-3.343-2.797v-1.093c0-1.782 1.25-3.094 2.984-3.094.578 0 1.188.156 1.656.406.485.281.657.5.75.906.063.407.094.532.235.657.14.14.375.25.593.25a.92.92 0 00.703-.36c.11-.156.141-.344.141-.765v-1.422c0-.438-.015-.563-.11-.719a.838.838 0 00-.734-.406c-.297 0-.5.094-.718.406l-.172-.078z"/><text font-family="sans-serif" font-size="12" textLength="59" x="875.25" y="174.654">Controller</text><path stroke="#a80036" stroke-width="1.5" d="M759.5 186.5h258"/><circle cx="769.5" cy="197.5" fill="none" stroke="#038048" r="3"/><text font-family="sans-serif" font-size="11" textLength="86" x="778.5" y="200.71">Board m_board</text><circle cx="769.5" cy="210.305" fill="none" stroke="#038048" r="3"/><text font-family="sans-serif" font-size="11" textLength="85" x="778.5" y="213.515">Menu m_menu</text><path stroke="#a80036" stroke-width="1.5" d="M759.5 220.109h258"/><circle cx="769.5" cy="231.109" fill="#84BE84" stroke="#038048" r="3"/><text font-family="sans-serif" font-size="11" textLength="63" x="778.5" y="234.32">Controller()</text><circle cx="769.5" cy="243.914" fill="#84BE84" stroke="#038048" r="3"/><text font-family="sans-serif" font-size="11" textLength="72" x="778.5" y="247.125">~Controller()</text><circle cx="769.5" cy="269.523" fill="#84BE84" stroke="#038048" r="3"/><text font-family="sans-serif" font-size="11" textLength="54" x="778.5" y="272.734">void run()</text><circle cx="769.5" cy="295.133" fill="#84BE84" stroke="#038048" r="3"/><text font-family="sans-serif" font-size="11" textLength="111" x="778.5" y="298.343">void setNewLevel()</text><circle cx="769.5" cy="307.938" fill="#84BE84" stroke="#038048" r="3"/><text font-family="sans-serif" font-size="11" textLength="234" x="778.5" y="311.148">void checkIfPlayerStandsInTime(sf::Time)</text><circle cx="769.5" cy="320.742" fill="#84BE84" stroke="#038048" r="3"/><text font-family="sans-serif" font-size="11" textLength="144" x="778.5" y="323.953">void startNewGame(int&amp;)</text><path fill="#FEFECE" filter="url(#a)" stroke="#a80036" stroke-width="1.5" d="M7 717.5h341v240.07H7z"/><circle cx="157.25" cy="733.5" fill="#ADD1B2" stroke="#a80036" r="11"/><path d="M159.594 729.172c-.938-.438-1.531-.578-2.406-.578-2.625 0-4.625 2.078-4.625 4.797v1.125c0 2.578 2.109 4.468 5 4.468 1.218 0 2.375-.297 3.125-.843.578-.407.906-.86.906-1.25a.864.864 0 00-.86-.844.831.831 0 00-.609.265c-.453.485-.453.485-.64.579-.423.265-1.11.39-1.876.39-2.047 0-3.343-1.093-3.343-2.797v-1.093c0-1.782 1.25-3.094 2.984-3.094.578 0 1.188.156 1.656.406.485.281.656.5.75.906.063.407.094.532.235.657.14.14.375.25.593.25a.92.92 0 00.703-.36c.11-.156.141-.343.141-.765v-1.422c0-.438-.016-.563-.11-.719a.838.838 0 00-.734-.406c-.297 0-.5.093-.718.406l-.172-.078z"/><text font-family="sans-serif" font-size="12" textLength="32" x="177.75" y="737.654">Menu</text><path stroke="#a80036" stroke-width="1.5" d="M8 749.5h339"/><circle cx="18" cy="760.5" fill="none" stroke="#038048" r="3"/><text font-family="sans-serif" font-size="11" textLength="83" x="27" y="763.71">sf::Font m_font</text><circle cx="18" cy="786.109" fill="none" stroke="#038048" r="3"/><text font-family="sans-serif" font-size="11" textLength="135" x="27" y="789.32">sf::Text m_msgOpening</text><circle cx="18" cy="798.914" fill="none" stroke="#038048" r="3"/><text font-family="sans-serif" font-size="11" textLength="114" x="27" y="802.125">sf::Text m_msgStart</text><circle cx="18" cy="811.719" fill="none" stroke="#038048" r="3"/><text font-family="sans-serif" font-size="11" textLength="106" x="27" y="814.929">sf::Text m_msgEsc</text><circle cx="18" cy="837.328" fill="none" stroke="#038048" r="3"/><text font-family="sans-serif" font-size="11" textLength="188" x="27" y="840.539">sf::Texture m_gameOverTexture</text><circle cx="18" cy="850.133" fill="none" stroke="#038048" r="3"/><text font-family="sans-serif" font-size="11" textLength="226" x="27" y="853.343">sf::Texture m_menuBackgroundTexture</text><circle cx="18" cy="862.938" fill="none" stroke="#038048" r="3"/><text font-family="sans-serif" font-size="11" textLength="254" x="27" y="866.148">sf::Texture m_gameOverBackgroundTexture</text><circle cx="18" cy="888.547" fill="none" stroke="#038048" r="3"/><text font-family="sans-serif" font-size="11" textLength="315" x="27" y="891.757">sf::RectangleShape m_gameOverBackgroundRectangle</text><circle cx="18" cy="901.352" fill="none" stroke="#038048" r="3"/><text font-family="sans-serif" font-size="11" textLength="249" x="27" y="904.562">sf::RectangleShape m_gameOverRectangle</text><circle cx="18" cy="914.156" fill="none" stroke="#038048" r="3"/><text font-family="sans-serif" font-size="11" textLength="287" x="27" y="917.367">sf::RectangleShape m_menuBackgroundRectangle</text><path stroke="#a80036" stroke-width="1.5" d="M8 923.961h339"/><circle cx="18" cy="934.961" fill="#84BE84" stroke="#038048" r="3"/><text font-family="sans-serif" font-size="11" textLength="39" x="27" y="938.171">Menu()</text><circle cx="18" cy="947.766" fill="#84BE84" stroke="#038048" r="3"/><text font-family="sans-serif" font-size="11" textLength="206" x="27" y="950.976">void showMenu(sf::RenderWindow&amp;)</text><path fill="#FEFECE" filter="url(#a)" stroke="#a80036" stroke-width="1.5" d="M383 538h271v598.602H383z"/><circle cx="481.75" cy="554" fill="#ADD1B2" stroke="#a80036" r="11"/><path d="M484.094 549.672c-.938-.438-1.531-.578-2.406-.578-2.625 0-4.625 2.078-4.625 4.797v1.125c0 2.578 2.109 4.468 5 4.468 1.218 0 2.375-.297 3.125-.843.578-.407.906-.86.906-1.25a.864.864 0 00-.86-.844.831.831 0 00-.609.265c-.453.485-.453.485-.64.579-.423.265-1.11.39-1.876.39-2.046 0-3.343-1.093-3.343-2.797v-1.093c0-1.782 1.25-3.094 2.984-3.094.578 0 1.188.156 1.656.406.485.281.656.5.75.906.063.407.094.532.235.657.14.14.375.25.593.25a.92.92 0 00.704-.36c.109-.156.14-.343.14-.765v-1.422c0-.438-.015-.563-.11-.719a.838.838 0 00-.734-.406c-.296 0-.5.093-.718.406l-.172-.078z"/><text font-family="sans-serif" font-size="12" textLength="65" x="502.25" y="558.154">SharedInfo</text><path stroke="#a80036" stroke-width="1.5" d="M384 570h269"/><circle cx="394" cy="581" fill="none" stroke="#038048" r="3"/><text font-family="sans-serif" font-size="11" textLength="89" x="403" y="584.21">bool m_isGame</text><circle cx="394" cy="593.805" fill="none" stroke="#038048" r="3"/><text font-family="sans-serif" font-size="11" textLength="152" x="403" y="597.015">bool m_isThereATimeLimit</text><circle cx="394" cy="606.609" fill="none" stroke="#038048" r="3"/><text font-family="sans-serif" font-size="11" textLength="113" x="403" y="609.82">float m_objectsSize</text><circle cx="394" cy="619.414" fill="none" stroke="#038048" r="3"/><text font-family="sans-serif" font-size="11" textLength="76" x="403" y="622.625">float m_timer</text><circle cx="394" cy="632.219" fill="none" stroke="#038048" r="3"/><text font-family="sans-serif" font-size="11" textLength="88" x="403" y="635.429">int m_currLevel</text><circle cx="394" cy="645.023" fill="none" stroke="#038048" r="3"/><text font-family="sans-serif" font-size="11" textLength="59" x="403" y="648.234">int m_gold</text><circle cx="394" cy="657.828" fill="none" stroke="#038048" r="3"/><text font-family="sans-serif" font-size="11" textLength="108" x="403" y="661.039">int m_goldOnBoard</text><circle cx="394" cy="670.633" fill="none" stroke="#038048" r="3"/><text font-family="sans-serif" font-size="11" textLength="49" x="403" y="673.843">int m_hp</text><circle cx="394" cy="683.438" fill="none" stroke="#038048" r="3"/><text font-family="sans-serif" font-size="11" textLength="110" x="403" y="686.648">int m_timeForLevel</text><circle cx="394" cy="696.242" fill="none" stroke="#038048" r="3"/><text font-family="sans-serif" font-size="11" textLength="95" x="403" y="699.453">sf::Clock m_clock</text><circle cx="394" cy="709.047" fill="none" stroke="#038048" r="3"/><text font-family="sans-serif" font-size="11" textLength="168" x="403" y="712.257">sf::Vector2f m_playerLocation</text><path stroke="#a80036" stroke-width="1.5" d="M384 718.852h269"/><circle cx="394" cy="729.852" fill="#84BE84" stroke="#038048" r="3"/><text font-family="sans-serif" font-size="11" textLength="79" x="403" y="733.062">~SharedInfo()</text><circle cx="394" cy="742.656" fill="#84BE84" stroke="#038048" r="3"/><text font-family="sans-serif" font-size="11" textLength="165" x="403" y="745.867">static SharedInfo&amp; instance()</text><circle cx="394" cy="768.266" fill="#84BE84" stroke="#038048" r="3"/><text font-family="sans-serif" font-size="11" textLength="100" x="403" y="771.476">void addHPBy(int)</text><circle cx="394" cy="781.07" fill="#84BE84" stroke="#038048" r="3"/><text font-family="sans-serif" font-size="11" textLength="201" x="403" y="784.281">void incGoldOnBoardCounterBy(int)</text><circle cx="394" cy="793.875" fill="#84BE84" stroke="#038048" r="3"/><text font-family="sans-serif" font-size="11" textLength="122" x="403" y="797.085">void levelUpReward()</text><circle cx="394" cy="806.68" fill="#84BE84" stroke="#038048" r="3"/><text font-family="sans-serif" font-size="11" textLength="96" x="403" y="809.89">void resetClock()</text><circle cx="394" cy="819.484" fill="#84BE84" stroke="#038048" r="3"/><text font-family="sans-serif" font-size="11" textLength="99" x="403" y="822.695">void resetScore()</text><circle cx="394" cy="832.289" fill="#84BE84" stroke="#038048" r="3"/><text font-family="sans-serif" font-size="11" textLength="186" x="403" y="835.5">void resetGoldOnBoardCounter()</text><circle cx="394" cy="845.094" fill="#84BE84" stroke="#038048" r="3"/><text font-family="sans-serif" font-size="11" textLength="123" x="403" y="848.304">void setCurrLevel(int)</text><circle cx="394" cy="857.898" fill="#84BE84" stroke="#038048" r="3"/><text font-family="sans-serif" font-size="11" textLength="149" x="403" y="861.109">void setGameStatus(bool)</text><circle cx="394" cy="870.703" fill="#84BE84" stroke="#038048" r="3"/><text font-family="sans-serif" font-size="11" textLength="94" x="403" y="873.914">void foundGold()</text><circle cx="394" cy="883.508" fill="#84BE84" stroke="#038048" r="3"/><text font-family="sans-serif" font-size="11" textLength="143" x="403" y="886.718">void setGoldOnBoard(int)</text><circle cx="394" cy="896.313" fill="#84BE84" stroke="#038048" r="3"/><text font-family="sans-serif" font-size="11" textLength="148" x="403" y="899.523">void setObjectsSize(float)</text><circle cx="394" cy="909.117" fill="#84BE84" stroke="#038048" r="3"/><text font-family="sans-serif" font-size="11" textLength="157" x="403" y="912.328">void setTimeForLevel(float)</text><circle cx="394" cy="921.922" fill="#84BE84" stroke="#038048" r="3"/><text font-family="sans-serif" font-size="11" textLength="126" x="403" y="925.132">void addTimeBy(float)</text><circle cx="394" cy="934.727" fill="#84BE84" stroke="#038048" r="3"/><text font-family="sans-serif" font-size="11" textLength="200" x="403" y="937.937">void setPlayerLocation(sf::Vector2f)</text><circle cx="394" cy="960.336" fill="#84BE84" stroke="#038048" r="3"/><text font-family="sans-serif" font-size="11" textLength="114" x="403" y="963.546">bool isGame() const</text><circle cx="394" cy="973.141" fill="#84BE84" stroke="#038048" r="3"/><text font-family="sans-serif" font-size="11" textLength="177" x="403" y="976.351">bool isThereATimeLimit() const</text><circle cx="394" cy="985.945" fill="#84BE84" stroke="#038048" r="3"/><text font-family="sans-serif" font-size="11" textLength="159" x="403" y="989.156">float getObjectsSize() const</text><circle cx="394" cy="998.75" fill="#84BE84" stroke="#038048" r="3"/><text font-family="sans-serif" font-size="11" textLength="123" x="403" y="1001.96">float getTimer() const</text><circle cx="394" cy="1011.555" fill="#84BE84" stroke="#038048" r="3"/><text font-family="sans-serif" font-size="11" textLength="134" x="403" y="1014.765">int getCurrLevel() const</text><circle cx="394" cy="1024.359" fill="#84BE84" stroke="#038048" r="3"/><text font-family="sans-serif" font-size="11" textLength="105" x="403" y="1027.57">int getGold() const</text><circle cx="394" cy="1037.164" fill="#84BE84" stroke="#038048" r="3"/><text font-family="sans-serif" font-size="11" textLength="154" x="403" y="1040.374">int getGoldOnBoard() const</text><circle cx="394" cy="1049.969" fill="#84BE84" stroke="#038048" r="3"/><text font-family="sans-serif" font-size="11" textLength="93" x="403" y="1053.179">int getHP() const</text><circle cx="394" cy="1062.773" fill="#84BE84" stroke="#038048" r="3"/><text font-family="sans-serif" font-size="11" textLength="184" x="403" y="1065.984">sf::Time getTimeForLevel()const</text><circle cx="394" cy="1075.578" fill="#84BE84" stroke="#038048" r="3"/><text font-family="sans-serif" font-size="11" textLength="211" x="403" y="1078.789">sf::Vector2f getPlayerLocation() const</text><circle cx="394" cy="1088.383" fill="#84BE84" stroke="#038048" r="3"/><text font-family="sans-serif" font-size="11" textLength="150" x="403" y="1091.593">sf::Time getElapsedTime()</text><circle cx="394" cy="1101.188" fill="#84BE84" stroke="#038048" r="3"/><text font-family="sans-serif" font-size="11" textLength="70" x="403" y="1104.398">SharedInfo()</text><circle cx="394" cy="1113.992" fill="#84BE84" stroke="#038048" r="3"/><text font-family="sans-serif" font-size="11" textLength="175" x="403" y="1117.203">SharedInfo(const SharedInfo&amp;)</text><circle cx="394" cy="1126.797" fill="#84BE84" stroke="#038048" r="3"/><text font-family="sans-serif" font-size="11" textLength="245" x="403" y="1130.007">SharedInfo&amp; operator=(const SharedInfo&amp;)</text><path fill="#FEFECE" filter="url(#a)" stroke="#a80036" stroke-width="1.5" d="M689.5 743h252v188.852h-252z"/><circle cx="779.25" cy="759" fill="#ADD1B2" stroke="#a80036" r="11"/><path d="M781.594 754.672c-.938-.438-1.532-.578-2.407-.578-2.625 0-4.625 2.078-4.625 4.797v1.125c0 2.578 2.11 4.468 5 4.468 1.22 0 2.375-.297 3.125-.843.579-.407.907-.86.907-1.25a.864.864 0 00-.86-.844.831.831 0 00-.609.265c-.453.485-.453.485-.64.579-.423.265-1.11.39-1.876.39-2.047 0-3.343-1.093-3.343-2.797v-1.093c0-1.782 1.25-3.094 2.984-3.094.578 0 1.188.156 1.656.406.485.281.657.5.75.906.063.407.094.532.235.657.14.14.375.25.593.25a.92.92 0 00.703-.36c.11-.156.141-.343.141-.765v-1.422c0-.438-.015-.563-.11-.719a.838.838 0 00-.734-.406c-.297 0-.5.093-.718.406l-.172-.078z"/><circle cx="804.75" cy="758.5" fill="#84BE84" stroke="#038048" r="3"/><text font-family="sans-serif" font-size="12" textLength="53" x="810.75" y="763.154">Textures</text><path stroke="#a80036" stroke-width="1.5" d="M690.5 775h250"/><circle cx="700.5" cy="786" fill="none" stroke="#038048" r="3"/><text font-family="sans-serif" font-size="11" textLength="188" x="709.5" y="789.21">std::vector&lt;sf::Texture&gt; m_icons</text><circle cx="700.5" cy="798.805" fill="none" stroke="#038048" r="3"/><text font-family="sans-serif" font-size="11" textLength="224" x="709.5" y="802.015">std::vector&lt;sf::Texture&gt; m_background</text><path stroke="#a80036" stroke-width="1.5" d="M690.5 808.609h250"/><circle cx="700.5" cy="819.609" fill="#84BE84" stroke="#038048" r="3"/><text font-family="sans-serif" font-size="11" textLength="68" x="709.5" y="822.82">~Textures()</text><circle cx="700.5" cy="832.414" fill="#84BE84" stroke="#038048" r="3"/><text font-family="sans-serif" font-size="11" textLength="154" x="709.5" y="835.625">static Textures&amp; instance()</text><circle cx="700.5" cy="845.219" fill="#84BE84" stroke="#038048" r="3"/><text font-family="sans-serif" font-size="11" textLength="183" x="709.5" y="848.429">sf::Texture&amp; getIconTexture(int)</text><circle cx="700.5" cy="858.023" fill="#84BE84" stroke="#038048" r="3"/><text font-family="sans-serif" font-size="11" textLength="226" x="709.5" y="861.234">sf::Texture&amp; getBackgroundTexture(int)</text><circle cx="700.5" cy="883.633" fill="#84BE84" stroke="#038048" r="3"/><text font-family="sans-serif" font-size="11" textLength="59" x="709.5" y="886.843">Textures()</text><circle cx="700.5" cy="896.438" fill="#84BE84" stroke="#038048" r="3"/><text font-family="sans-serif" font-size="11" textLength="153" x="709.5" y="899.648">Textures(const Textures&amp;)</text><circle cx="700.5" cy="909.242" fill="#84BE84" stroke="#038048" r="3"/><text font-family="sans-serif" font-size="11" textLength="223" x="709.5" y="912.453">Textures&amp; operator=(const Textures&amp;)</text><circle cx="700.5" cy="922.047" fill="#84BE84" stroke="#038048" r="3"/><text font-family="sans-serif" font-size="11" textLength="111" x="709.5" y="925.257">void loadTextures()</text></svg>