<svg xmlns="http://www.w3.org/2000/svg" height="1366" preserveAspectRatio="none" style="width:1849px;height:1366px" width="1849"><defs><filter height="300%" id="a" width="300%" x="-1" y="-1"><feGaussianBlur result="blurOut" stdDeviation="2"/><feColorMatrix in="blurOut" result="blurOut2" values="0 0 0 0 0 0 0 0 0 0 0 0 0 0 0 0 0 0 .4 0"/><feOffset dx="4" dy="4" in="blurOut2" result="blurOut3"/><feBlend in="SourceGraphic" in2="blurOut3"/></filter></defs><path fill="#FEFECE" filter="url(#a)" stroke="#a80036" stroke-width="1.5" d="M786.5 895.5h169v86.414h-169z"/><circle cx="856.75" cy="911.5" fill="#ADD1B2" stroke="#a80036" r="11"/><path d="M859.094 907.172c-.938-.438-1.532-.578-2.407-.578-2.625 0-4.625 2.078-4.625 4.797v1.125c0 2.578 2.11 4.468 5 4.468 1.22 0 2.375-.297 3.125-.843.579-.407.907-.86.907-1.25a.864.864 0 00-.86-.844.831.831 0 00-.609.265c-.453.485-.453.485-.64.579-.423.265-1.11.39-1.876.39-2.047 0-3.343-1.093-3.343-2.797v-1.093c0-1.782 1.25-3.094 2.984-3.094.578 0 1.188.156 1.656.406.485.281.657.5.75.906.063.407.094.532.235.657.14.14.375.25.593.25a.92.92 0 00.703-.36c.11-.156.141-.343.141-.765v-1.422c0-.438-.015-.563-.11-.719a.838.838 0 00-.734-.406c-.297 0-.5.093-.718.406l-.172-.078z"/><text font-family="sans-serif" font-size="12" textLength="20" x="877.25" y="915.654">Bar</text><path stroke="#a80036" stroke-width="1.5" d="M787.5 927.5h167M787.5 935.5h167"/><circle cx="797.5" cy="946.5" fill="#84BE84" stroke="#038048" r="3"/><text font-family="sans-serif" font-size="11" textLength="91" x="806.5" y="949.71">Bar(sf::Vector2f)</text><circle cx="797.5" cy="959.305" fill="#84BE84" stroke="#038048" r="3"/><text font-family="sans-serif" font-size="11" textLength="143" x="806.5" y="962.515">handleCollision(Enemy&amp;)</text><circle cx="797.5" cy="972.109" fill="#84BE84" stroke="#038048" r="3"/><text font-family="sans-serif" font-size="11" textLength="138" x="806.5" y="975.32">handleCollision(Player&amp;)</text><path fill="#FEFECE" filter="url(#a)" stroke="#a80036" stroke-width="1.5" d="M203 818.5h274v240.07H203z"/><circle cx="315.75" cy="834.5" fill="#ADD1B2" stroke="#a80036" r="11"/><path d="M318.094 830.172c-.938-.438-1.531-.578-2.406-.578-2.625 0-4.625 2.078-4.625 4.797v1.125c0 2.578 2.109 4.468 5 4.468 1.218 0 2.375-.297 3.125-.843.578-.407.906-.86.906-1.25a.864.864 0 00-.86-.844.831.831 0 00-.609.265c-.453.485-.453.485-.64.579-.423.265-1.11.39-1.876.39-2.046 0-3.343-1.093-3.343-2.797v-1.093c0-1.782 1.25-3.094 2.984-3.094.578 0 1.188.156 1.656.406.485.281.656.5.75.906.063.407.094.532.235.657.14.14.375.25.593.25a.92.92 0 00.704-.36c.109-.156.14-.343.14-.765v-1.422c0-.438-.015-.563-.11-.719a.838.838 0 00-.734-.406c-.296 0-.5.093-.718.406l-.172-.078z"/><text font-family="sans-serif" font-size="12" textLength="40" x="336.25" y="838.654">Enemy</text><path stroke="#a80036" stroke-width="1.5" d="M204 850.5h272"/><circle cx="214" cy="861.5" fill="none" stroke="#038048" r="3"/><text font-family="sans-serif" font-size="11" textLength="178" x="223" y="864.71">static int m_newEnemyCounter</text><path stroke="#a80036" stroke-width="1.5" d="M204 871.305h272"/><circle cx="214" cy="882.305" fill="#84BE84" stroke="#038048" r="3"/><text font-family="sans-serif" font-size="11" textLength="116" x="223" y="885.515">Enemy(sf::Vector2f )</text><circle cx="214" cy="895.109" fill="#84BE84" stroke="#038048" r="3"/><text font-family="sans-serif" font-size="11" textLength="189" x="223" y="898.32">static int getNewEnemyCounter()</text><circle cx="214" cy="907.914" fill="#84BE84" stroke="#038048" r="3"/><text font-family="sans-serif" font-size="11" textLength="137" x="223" y="911.125">void setPos(sf::Vector2f)</text><circle cx="214" cy="920.719" fill="#84BE84" stroke="#038048" r="3"/><text font-family="sans-serif" font-size="11" textLength="171" x="223" y="923.929">sf::Vector2f getLastPos() const</text><circle cx="214" cy="933.523" fill="#84BE84" stroke="#038048" r="3"/><text font-family="sans-serif" font-size="11" textLength="248" x="223" y="936.734">void virtual setEnemyDirection(sf::Vector2f)</text><circle cx="214" cy="959.133" fill="#84BE84" stroke="#038048" r="3"/><text font-family="sans-serif" font-size="11" textLength="144" x="223" y="962.343">handleCollision(Object&amp; )</text><circle cx="214" cy="971.938" fill="#84BE84" stroke="#038048" r="3"/><text font-family="sans-serif" font-size="11" textLength="142" x="223" y="975.148">handleCollision(Player&amp; )</text><circle cx="214" cy="984.742" fill="#84BE84" stroke="#038048" r="3"/><text font-family="sans-serif" font-size="11" textLength="127" x="223" y="987.953">handleCollision(Gift&amp; )</text><circle cx="214" cy="997.547" fill="#84BE84" stroke="#038048" r="3"/><text font-family="sans-serif" font-size="11" textLength="133" x="223" y="1000.757">handleCollision(Gold&amp; )</text><circle cx="214" cy="1010.352" fill="#84BE84" stroke="#038048" r="3"/><text font-family="sans-serif" font-size="11" textLength="126" x="223" y="1013.562">handleCollision(Bar&amp; )</text><circle cx="214" cy="1023.156" fill="#84BE84" stroke="#038048" r="3"/><text font-family="sans-serif" font-size="11" textLength="146" x="223" y="1026.367">handleCollision(Ladder&amp; )</text><circle cx="214" cy="1035.961" fill="#84BE84" stroke="#038048" r="3"/><text font-family="sans-serif" font-size="11" textLength="147" x="223" y="1039.171">handleCollision(Enemy&amp; )</text><circle cx="214" cy="1048.766" fill="#84BE84" stroke="#038048" r="3"/><text font-family="sans-serif" font-size="11" textLength="155" x="223" y="1051.976">handleCollision(Wall&amp; ) = 0</text><path fill="#FEFECE" filter="url(#a)" stroke="#a80036" stroke-width="1.5" d="M990.5 876h195v124.828h-195z"/><circle cx="1068.25" cy="892" fill="#ADD1B2" stroke="#a80036" r="11"/><path d="M1070.594 887.672c-.938-.438-1.532-.578-2.407-.578-2.624 0-4.624 2.078-4.624 4.797v1.125c0 2.578 2.109 4.468 5 4.468 1.218 0 2.374-.297 3.124-.843.579-.407.907-.86.907-1.25a.864.864 0 00-.86-.844.831.831 0 00-.609.265c-.453.485-.453.485-.64.579-.422.265-1.11.39-1.876.39-2.046 0-3.343-1.093-3.343-2.797v-1.093c0-1.782 1.25-3.094 2.984-3.094.578 0 1.188.156 1.656.406.485.281.657.5.75.906.063.407.094.532.235.657.14.14.375.25.593.25a.92.92 0 00.704-.36c.109-.156.14-.343.14-.765v-1.422c0-.438-.015-.563-.11-.719a.838.838 0 00-.734-.406c-.296 0-.5.093-.718.406l-.172-.078z"/><circle cx="1093.75" cy="891.5" fill="#84BE84" stroke="#038048" r="3"/><text font-family="sans-serif" font-size="12" textLength="20" x="1099.75" y="896.154">Gift</text><path stroke="#a80036" stroke-width="1.5" d="M991.5 908h193"/><circle cx="1001.5" cy="919" fill="none" stroke="#038048" r="3"/><text font-family="sans-serif" font-size="11" textLength="158" x="1010.5" y="922.21">static int m_newGiftCounter</text><path stroke="#a80036" stroke-width="1.5" d="M991.5 928.805h193"/><circle cx="1001.5" cy="939.805" fill="#84BE84" stroke="#038048" r="3"/><text font-family="sans-serif" font-size="11" textLength="92" x="1010.5" y="943.015">Gift(sf::Vector2f)</text><circle cx="1001.5" cy="952.609" fill="#84BE84" stroke="#038048" r="3"/><text font-family="sans-serif" font-size="11" textLength="169" x="1010.5" y="955.82">static int getNewGiftCounter()</text><circle cx="1001.5" cy="978.219" fill="#84BE84" stroke="#038048" r="3"/><text font-family="sans-serif" font-size="11" textLength="166" x="1010.5" y="981.429">handleCollision(Player&amp; ) = 0</text><circle cx="1001.5" cy="991.023" fill="#84BE84" stroke="#038048" r="3"/><text font-family="sans-serif" font-size="11" textLength="147" x="1010.5" y="994.234">handleCollision(Enemy&amp; )</text><path fill="#FEFECE" filter="url(#a)" stroke="#a80036" stroke-width="1.5" d="M760 1234h168v86.414H760z"/><circle cx="804.25" cy="1250" fill="#ADD1B2" stroke="#a80036" r="11"/><path d="M806.594 1245.672c-.938-.438-1.532-.578-2.407-.578-2.625 0-4.625 2.078-4.625 4.797v1.125c0 2.578 2.11 4.468 5 4.468 1.22 0 2.375-.296 3.125-.843.579-.407.907-.86.907-1.25a.864.864 0 00-.86-.844.831.831 0 00-.609.265c-.453.485-.453.485-.64.579-.423.265-1.11.39-1.876.39-2.047 0-3.343-1.093-3.343-2.797v-1.093c0-1.782 1.25-3.094 2.984-3.094.578 0 1.188.156 1.656.406.485.281.657.5.75.906.063.407.094.532.235.657.14.14.375.25.593.25a.92.92 0 00.703-.36c.11-.156.141-.343.141-.765v-1.422c0-.438-.015-.563-.11-.719a.838.838 0 00-.734-.406c-.297 0-.5.093-.718.406l-.172-.078z"/><circle cx="829.75" cy="1249.5" fill="#84BE84" stroke="#038048" r="3"/><text font-family="sans-serif" font-size="12" textLength="60" x="835.75" y="1254.154">GiftEnemy</text><path stroke="#a80036" stroke-width="1.5" d="M761 1266h166M761 1274h166"/><circle cx="771" cy="1285" fill="#84BE84" stroke="#038048" r="3"/><text font-family="sans-serif" font-size="11" textLength="132" x="780" y="1288.21">GiftEnemy(sf::Vector2f)</text><circle cx="771" cy="1310.609" fill="#84BE84" stroke="#038048" r="3"/><text font-family="sans-serif" font-size="11" textLength="142" x="780" y="1313.82">handleCollision(Player&amp; )</text><path fill="#FEFECE" filter="url(#a)" stroke="#a80036" stroke-width="1.5" d="M963 1234h168v86.414H963z"/><circle cx="1013.25" cy="1250" fill="#ADD1B2" stroke="#a80036" r="11"/><path d="M1015.594 1245.672c-.938-.438-1.532-.578-2.407-.578-2.625 0-4.625 2.078-4.625 4.797v1.125c0 2.578 2.11 4.468 5 4.468 1.22 0 2.375-.296 3.125-.843.579-.407.907-.86.907-1.25a.864.864 0 00-.86-.844.831.831 0 00-.609.265c-.453.485-.453.485-.64.579-.423.265-1.11.39-1.876.39-2.047 0-3.343-1.093-3.343-2.797v-1.093c0-1.782 1.25-3.094 2.984-3.094.578 0 1.188.156 1.656.406.485.281.657.5.75.906.063.407.094.532.235.657.14.14.375.25.593.25a.92.92 0 00.703-.36c.11-.156.141-.343.141-.765v-1.422c0-.438-.015-.563-.11-.719a.838.838 0 00-.734-.406c-.297 0-.5.093-.718.406l-.172-.078z"/><circle cx="1038.75" cy="1249.5" fill="#84BE84" stroke="#038048" r="3"/><text font-family="sans-serif" font-size="12" textLength="48" x="1044.75" y="1254.154">GiftGold</text><path stroke="#a80036" stroke-width="1.5" d="M964 1266h166M964 1274h166"/><circle cx="974" cy="1285" fill="#84BE84" stroke="#038048" r="3"/><text font-family="sans-serif" font-size="11" textLength="118" x="983" y="1288.21">GiftGold(sf::Vector2f)</text><circle cx="974" cy="1310.609" fill="#84BE84" stroke="#038048" r="3"/><text font-family="sans-serif" font-size="11" textLength="142" x="983" y="1313.82">handleCollision(Player&amp; )</text><path fill="#FEFECE" filter="url(#a)" stroke="#a80036" stroke-width="1.5" d="M1166 1234h168v86.414h-168z"/><circle cx="1222.75" cy="1250" fill="#ADD1B2" stroke="#a80036" r="11"/><path d="M1225.094 1245.672c-.938-.438-1.532-.578-2.407-.578-2.624 0-4.624 2.078-4.624 4.797v1.125c0 2.578 2.109 4.468 5 4.468 1.218 0 2.374-.296 3.124-.843.579-.407.907-.86.907-1.25a.864.864 0 00-.86-.844.831.831 0 00-.609.265c-.453.485-.453.485-.64.579-.422.265-1.11.39-1.876.39-2.046 0-3.343-1.093-3.343-2.797v-1.093c0-1.782 1.25-3.094 2.984-3.094.578 0 1.188.156 1.656.406.485.281.657.5.75.906.063.407.094.532.235.657.14.14.375.25.593.25a.92.92 0 00.704-.36c.109-.156.14-.343.14-.765v-1.422c0-.438-.015-.563-.11-.719a.838.838 0 00-.734-.406c-.296 0-.5.093-.718.406l-.172-.078z"/><circle cx="1248.25" cy="1249.5" fill="#84BE84" stroke="#038048" r="3"/><text font-family="sans-serif" font-size="12" textLength="35" x="1254.25" y="1254.154">GiftHP</text><path stroke="#a80036" stroke-width="1.5" d="M1167 1266h166M1167 1274h166"/><circle cx="1177" cy="1285" fill="#84BE84" stroke="#038048" r="3"/><text font-family="sans-serif" font-size="11" textLength="106" x="1186" y="1288.21">GiftHP(sf::Vector2f)</text><circle cx="1177" cy="1310.609" fill="#84BE84" stroke="#038048" r="3"/><text font-family="sans-serif" font-size="11" textLength="142" x="1186" y="1313.82">handleCollision(Player&amp; )</text><path fill="#FEFECE" filter="url(#a)" stroke="#a80036" stroke-width="1.5" d="M1369 1234h168v86.414h-168z"/><circle cx="1418.75" cy="1250" fill="#ADD1B2" stroke="#a80036" r="11"/><path d="M1421.094 1245.672c-.938-.438-1.532-.578-2.407-.578-2.624 0-4.624 2.078-4.624 4.797v1.125c0 2.578 2.109 4.468 5 4.468 1.218 0 2.374-.296 3.124-.843.579-.407.907-.86.907-1.25a.864.864 0 00-.86-.844.831.831 0 00-.609.265c-.453.485-.453.485-.64.579-.422.265-1.11.39-1.876.39-2.046 0-3.343-1.093-3.343-2.797v-1.093c0-1.782 1.25-3.094 2.984-3.094.578 0 1.188.156 1.656.406.485.281.657.5.75.906.063.407.094.532.235.657.14.14.375.25.593.25a.92.92 0 00.704-.36c.109-.156.14-.343.14-.765v-1.422c0-.438-.015-.563-.11-.719a.838.838 0 00-.734-.406c-.296 0-.5.093-.718.406l-.172-.078z"/><circle cx="1444.25" cy="1249.5" fill="#84BE84" stroke="#038048" r="3"/><text font-family="sans-serif" font-size="12" textLength="49" x="1450.25" y="1254.154">GiftTime</text><path stroke="#a80036" stroke-width="1.5" d="M1370 1266h166M1370 1274h166"/><circle cx="1380" cy="1285" fill="#84BE84" stroke="#038048" r="3"/><text font-family="sans-serif" font-size="11" textLength="121" x="1389" y="1288.21">GiftTime(sf::Vector2f)</text><circle cx="1380" cy="1310.609" fill="#84BE84" stroke="#038048" r="3"/><text font-family="sans-serif" font-size="11" textLength="142" x="1389" y="1313.82">handleCollision(Player&amp; )</text><path fill="#FEFECE" filter="url(#a)" stroke="#a80036" stroke-width="1.5" d="M1220.5 889h173v99.219h-173z"/><circle cx="1288.75" cy="905" fill="#ADD1B2" stroke="#a80036" r="11"/><path d="M1291.094 900.672c-.938-.438-1.532-.578-2.407-.578-2.624 0-4.624 2.078-4.624 4.797v1.125c0 2.578 2.109 4.468 5 4.468 1.218 0 2.374-.297 3.124-.843.579-.407.907-.86.907-1.25a.864.864 0 00-.86-.844.831.831 0 00-.609.265c-.453.485-.453.485-.64.579-.422.265-1.11.39-1.876.39-2.046 0-3.343-1.093-3.343-2.797v-1.093c0-1.782 1.25-3.094 2.984-3.094.578 0 1.188.156 1.656.406.485.281.657.5.75.906.063.407.094.532.235.657.14.14.375.25.593.25a.92.92 0 00.704-.36c.109-.156.14-.343.14-.765v-1.422c0-.438-.015-.563-.11-.719a.838.838 0 00-.734-.406c-.296 0-.5.093-.718.406l-.172-.078z"/><text font-family="sans-serif" font-size="12" textLength="28" x="1309.25" y="909.154">Gold</text><path stroke="#a80036" stroke-width="1.5" d="M1221.5 921h171M1221.5 929h171"/><circle cx="1231.5" cy="940" fill="#84BE84" stroke="#038048" r="3"/><text font-family="sans-serif" font-size="11" textLength="98" x="1240.5" y="943.21">Gold(sf::Vector2f)</text><circle cx="1231.5" cy="965.609" fill="#84BE84" stroke="#038048" r="3"/><text font-family="sans-serif" font-size="11" textLength="142" x="1240.5" y="968.82">handleCollision(Player&amp; )</text><circle cx="1231.5" cy="978.414" fill="#84BE84" stroke="#038048" r="3"/><text font-family="sans-serif" font-size="11" textLength="147" x="1240.5" y="981.625">handleCollision(Enemy&amp; )</text><path fill="#FEFECE" filter="url(#a)" stroke="#a80036" stroke-width="1.5" d="M1428.5 889h173v99.219h-173z"/><circle cx="1489.75" cy="905" fill="#ADD1B2" stroke="#a80036" r="11"/><path d="M1492.094 900.672c-.938-.438-1.532-.578-2.407-.578-2.624 0-4.624 2.078-4.624 4.797v1.125c0 2.578 2.109 4.468 5 4.468 1.218 0 2.374-.297 3.124-.843.579-.407.907-.86.907-1.25a.864.864 0 00-.86-.844.831.831 0 00-.609.265c-.453.485-.453.485-.64.579-.422.265-1.11.39-1.876.39-2.046 0-3.343-1.093-3.343-2.797v-1.093c0-1.782 1.25-3.094 2.984-3.094.578 0 1.188.156 1.656.406.485.281.657.5.75.906.063.407.094.532.235.657.14.14.375.25.593.25a.92.92 0 00.704-.36c.109-.156.14-.343.14-.765v-1.422c0-.438-.015-.563-.11-.719a.838.838 0 00-.734-.406c-.296 0-.5.093-.718.406l-.172-.078z"/><text font-family="sans-serif" font-size="12" textLength="42" x="1510.25" y="909.154">Ladder</text><path stroke="#a80036" stroke-width="1.5" d="M1429.5 921h171M1429.5 929h171"/><circle cx="1439.5" cy="940" fill="#84BE84" stroke="#038048" r="3"/><text font-family="sans-serif" font-size="11" textLength="111" x="1448.5" y="943.21">Ladder(sf::Vector2f)</text><circle cx="1439.5" cy="965.609" fill="#84BE84" stroke="#038048" r="3"/><text font-family="sans-serif" font-size="11" textLength="142" x="1448.5" y="968.82">handleCollision(Player&amp; )</text><circle cx="1439.5" cy="978.414" fill="#84BE84" stroke="#038048" r="3"/><text font-family="sans-serif" font-size="11" textLength="147" x="1448.5" y="981.625">handleCollision(Enemy&amp; )</text><path fill="#FEFECE" filter="url(#a)" stroke="#a80036" stroke-width="1.5" d="M529 397h206v278.484H529z"/><circle cx="586.25" cy="413" fill="#ADD1B2" stroke="#a80036" r="11"/><path d="M588.594 408.672c-.938-.438-1.532-.578-2.407-.578-2.625 0-4.625 2.078-4.625 4.797v1.125c0 2.578 2.11 4.468 5 4.468 1.22 0 2.375-.296 3.125-.843.579-.407.907-.86.907-1.25a.864.864 0 00-.86-.844.831.831 0 00-.609.265c-.453.485-.453.485-.64.579-.423.265-1.11.39-1.876.39-2.047 0-3.343-1.094-3.343-2.797v-1.093c0-1.782 1.25-3.094 2.984-3.094.578 0 1.188.156 1.656.406.485.281.657.5.75.906.063.407.094.532.235.657.14.14.375.25.593.25a.92.92 0 00.703-.36c.11-.156.141-.344.141-.765v-1.422c0-.438-.015-.563-.11-.719a.838.838 0 00-.734-.406c-.297 0-.5.094-.718.406l-.172-.078z"/><text font-family="sans-serif" font-size="12" textLength="83" x="606.75" y="417.154">MovingObject</text><path stroke="#a80036" stroke-width="1.5" d="M530 429h204"/><circle cx="540" cy="440" fill="none" stroke="#038048" r="3"/><text font-family="sans-serif" font-size="11" textLength="134" x="549" y="443.21">sf::Vector2f m_direction</text><circle cx="540" cy="452.805" fill="none" stroke="#038048" r="3"/><text font-family="sans-serif" font-size="11" textLength="154" x="549" y="456.015">bool m_isOnLadder = false</text><circle cx="540" cy="465.609" fill="none" stroke="#038048" r="3"/><text font-family="sans-serif" font-size="11" textLength="156" x="549" y="468.82">bool m_isOnGround = false</text><circle cx="540" cy="478.414" fill="none" stroke="#038048" r="3"/><text font-family="sans-serif" font-size="11" textLength="147" x="549" y="481.625">bool m_wasOnBar = false</text><circle cx="540" cy="491.219" fill="none" stroke="#038048" r="3"/><text font-family="sans-serif" font-size="11" textLength="124" x="549" y="494.429">sf::Vector2f m_lastPos</text><path stroke="#a80036" stroke-width="1.5" d="M530 501.023h204"/><circle cx="540" cy="512.023" fill="#84BE84" stroke="#038048" r="3"/><text font-family="sans-serif" font-size="11" textLength="157" x="549" y="515.234">void virtual move(float) = 0</text><circle cx="540" cy="524.828" fill="#84BE84" stroke="#038048" r="3"/><text font-family="sans-serif" font-size="11" textLength="75" x="549" y="528.039">void gravity()</text><circle cx="540" cy="550.438" fill="#84BE84" stroke="#038048" r="3"/><text font-family="sans-serif" font-size="11" textLength="170" x="549" y="553.648">void setLadderCondition(bool)</text><circle cx="540" cy="563.242" fill="#84BE84" stroke="#038048" r="3"/><text font-family="sans-serif" font-size="11" textLength="172" x="549" y="566.453">void setGroundCondition(bool)</text><circle cx="540" cy="576.047" fill="#84BE84" stroke="#038048" r="3"/><text font-family="sans-serif" font-size="11" textLength="150" x="549" y="579.257">void setBarCondition(bool)</text><circle cx="540" cy="588.852" fill="#84BE84" stroke="#038048" r="3"/><text font-family="sans-serif" font-size="11" textLength="96" x="549" y="592.062">void setLastPos()</text><circle cx="540" cy="614.461" fill="#84BE84" stroke="#038048" r="3"/><text font-family="sans-serif" font-size="11" textLength="134" x="549" y="617.671">bool isOnLadder() const</text><circle cx="540" cy="627.266" fill="#84BE84" stroke="#038048" r="3"/><text font-family="sans-serif" font-size="11" textLength="136" x="549" y="630.476">bool isOnGround() const</text><circle cx="540" cy="640.07" fill="#84BE84" stroke="#038048" r="3"/><text font-family="sans-serif" font-size="11" textLength="127" x="549" y="643.281">bool wasOnBar() const</text><circle cx="540" cy="665.68" fill="#84BE84" stroke="#038048" r="3"/><text font-family="sans-serif" font-size="11" textLength="180" x="549" y="668.89">sf::Vector2f getDirection() const</text><path fill="#FEFECE" filter="url(#a)" stroke="#a80036" stroke-width="1.5" d="M770.5 7h287v329.703h-287z"/><circle cx="889.75" cy="23" fill="#ADD1B2" stroke="#a80036" r="11"/><path d="M892.094 18.672c-.938-.438-1.532-.578-2.407-.578-2.625 0-4.625 2.078-4.625 4.797v1.125c0 2.578 2.11 4.468 5 4.468 1.22 0 2.375-.297 3.125-.843.579-.407.907-.86.907-1.25a.864.864 0 00-.86-.844.831.831 0 00-.609.265c-.453.485-.453.485-.64.579-.423.265-1.11.39-1.876.39-2.047 0-3.343-1.093-3.343-2.797v-1.093c0-1.782 1.25-3.094 2.984-3.094.578 0 1.188.156 1.656.406.485.281.657.5.75.906.063.407.094.532.235.657.14.14.375.25.593.25a.92.92 0 00.703-.36c.11-.156.141-.343.141-.765v-1.422c0-.438-.015-.563-.11-.719a.838.838 0 00-.734-.406c-.297 0-.5.093-.718.406l-.172-.078z"/><text font-family="sans-serif" font-size="12" textLength="40" x="910.25" y="27.154">Object</text><path stroke="#a80036" stroke-width="1.5" d="M771.5 39h285"/><circle cx="781.5" cy="50" fill="none" stroke="#038048" r="3"/><text font-family="sans-serif" font-size="11" textLength="222" x="790.5" y="53.21">sf::RectangleShape m_rectangleShape</text><circle cx="781.5" cy="62.805" fill="none" stroke="#038048" r="3"/><text font-family="sans-serif" font-size="11" textLength="145" x="790.5" y="66.015">sf::Vector2f m_originalPos</text><circle cx="781.5" cy="75.609" fill="none" stroke="#038048" r="3"/><text font-family="sans-serif" font-size="11" textLength="89" x="790.5" y="78.82">bool m_drawMe</text><path stroke="#a80036" stroke-width="1.5" d="M771.5 85.414h285"/><circle cx="781.5" cy="96.414" fill="#84BE84" stroke="#038048" r="3"/><text font-family="sans-serif" font-size="11" textLength="45" x="790.5" y="99.624">Object()</text><circle cx="781.5" cy="109.219" fill="#84BE84" stroke="#038048" r="3"/><text font-family="sans-serif" font-size="11" textLength="150" x="790.5" y="112.429">virtual ~Object() = default</text><circle cx="781.5" cy="134.828" fill="#84BE84" stroke="#038048" r="3"/><text font-family="sans-serif" font-size="11" textLength="149" x="790.5" y="138.039">draw(sf::RenderWindow&amp; )</text><circle cx="781.5" cy="147.633" fill="#84BE84" stroke="#038048" r="3"/><text font-family="sans-serif" font-size="11" textLength="77" x="790.5" y="150.843">setSize(float)</text><circle cx="781.5" cy="160.438" fill="#84BE84" stroke="#038048" r="3"/><text font-family="sans-serif" font-size="11" textLength="235" x="790.5" y="163.648">virtual sf::FloatRect getGlobalRectBound()</text><circle cx="781.5" cy="186.047" fill="#84BE84" stroke="#038048" r="3"/><text font-family="sans-serif" font-size="11" textLength="139" x="790.5" y="189.257">void restoreOriginalPos()</text><circle cx="781.5" cy="198.852" fill="#84BE84" stroke="#038048" r="3"/><text font-family="sans-serif" font-size="11" textLength="159" x="790.5" y="202.062">bool shouldBeDrawn() const</text><circle cx="781.5" cy="224.461" fill="#84BE84" stroke="#038048" r="3"/><text font-family="sans-serif" font-size="11" textLength="168" x="790.5" y="227.671">handleCollision(Object&amp; ) = 0</text><circle cx="781.5" cy="237.266" fill="#84BE84" stroke="#038048" r="3"/><text font-family="sans-serif" font-size="11" textLength="166" x="790.5" y="240.476">handleCollision(Player&amp; ) = 0</text><circle cx="781.5" cy="250.07" fill="#84BE84" stroke="#038048" r="3"/><text font-family="sans-serif" font-size="11" textLength="151" x="790.5" y="253.281">handleCollision(Wall&amp;) = 0</text><circle cx="781.5" cy="262.875" fill="#84BE84" stroke="#038048" r="3"/><text font-family="sans-serif" font-size="11" textLength="147" x="790.5" y="266.085">handleCollision(Gift&amp;) = 0</text><circle cx="781.5" cy="275.68" fill="#84BE84" stroke="#038048" r="3"/><text font-family="sans-serif" font-size="11" textLength="153" x="790.5" y="278.89">handleCollision(Gold&amp;) = 0</text><circle cx="781.5" cy="288.484" fill="#84BE84" stroke="#038048" r="3"/><text font-family="sans-serif" font-size="11" textLength="146" x="790.5" y="291.695">handleCollision(Bar&amp;) = 0</text><circle cx="781.5" cy="301.289" fill="#84BE84" stroke="#038048" r="3"/><text font-family="sans-serif" font-size="11" textLength="166" x="790.5" y="304.5">handleCollision(Ladder&amp;) = 0</text><circle cx="781.5" cy="314.094" fill="#84BE84" stroke="#038048" r="3"/><text font-family="sans-serif" font-size="11" textLength="167" x="790.5" y="317.304">handleCollision(Enemy&amp;) = 0</text><circle cx="781.5" cy="326.898" fill="#84BE84" stroke="#038048" r="3"/><text font-family="sans-serif" font-size="11" textLength="261" x="790.5" y="330.109">bool checkCollision(const sf::FloatRect&amp;) const</text><path fill="#FEFECE" filter="url(#a)" stroke="#a80036" stroke-width="1.5" d="M512.5 735h239v406.531h-239z"/><circle cx="609.75" cy="751" fill="#ADD1B2" stroke="#a80036" r="11"/><path d="M612.094 746.672c-.938-.438-1.532-.578-2.407-.578-2.625 0-4.625 2.078-4.625 4.797v1.125c0 2.578 2.11 4.468 5 4.468 1.22 0 2.375-.297 3.125-.843.579-.407.907-.86.907-1.25a.864.864 0 00-.86-.844.831.831 0 00-.609.265c-.453.485-.453.485-.64.579-.423.265-1.11.39-1.876.39-2.047 0-3.343-1.093-3.343-2.797v-1.093c0-1.782 1.25-3.094 2.984-3.094.578 0 1.188.156 1.656.406.485.281.657.5.75.906.063.407.094.532.235.657.14.14.375.25.593.25a.92.92 0 00.703-.36c.11-.156.141-.343.141-.765v-1.422c0-.438-.015-.563-.11-.719a.838.838 0 00-.734-.406c-.297 0-.5.093-.718.406l-.172-.078z"/><text font-family="sans-serif" font-size="12" textLength="36" x="630.25" y="755.154">Player</text><path stroke="#a80036" stroke-width="1.5" d="M513.5 767h237"/><circle cx="523.5" cy="778" fill="none" stroke="#038048" r="3"/><text font-family="sans-serif" font-size="11" textLength="106" x="532.5" y="781.21">bool m_gameOver</text><circle cx="523.5" cy="790.805" fill="none" stroke="#038048" r="3"/><text font-family="sans-serif" font-size="11" textLength="119" x="532.5" y="794.015">bool m_isNewEnemy</text><circle cx="523.5" cy="803.609" fill="none" stroke="#038048" r="3"/><text font-family="sans-serif" font-size="11" textLength="149" x="532.5" y="806.82">bool m_shouldDeleteFloor</text><circle cx="523.5" cy="829.219" fill="none" stroke="#038048" r="3"/><text font-family="sans-serif" font-size="11" textLength="170" x="532.5" y="832.429">sf::Vector2f m_diggedFloorPos</text><path stroke="#a80036" stroke-width="1.5" d="M513.5 839.023h237"/><circle cx="523.5" cy="850.023" fill="#84BE84" stroke="#038048" r="3"/><text font-family="sans-serif" font-size="11" textLength="43" x="532.5" y="853.234">Player()</text><circle cx="523.5" cy="875.633" fill="#84BE84" stroke="#038048" r="3"/><text font-family="sans-serif" font-size="11" textLength="200" x="532.5" y="878.843">void setPlayerLocation(sf::Vector2f)</text><circle cx="523.5" cy="888.438" fill="#84BE84" stroke="#038048" r="3"/><text font-family="sans-serif" font-size="11" textLength="165" x="532.5" y="891.648">void setNewEnemyCon(bool)</text><circle cx="523.5" cy="901.242" fill="#84BE84" stroke="#038048" r="3"/><text font-family="sans-serif" font-size="11" textLength="155" x="532.5" y="904.453">void resetDeleteFloorCon()</text><circle cx="523.5" cy="926.852" fill="#84BE84" stroke="#038048" r="3"/><text font-family="sans-serif" font-size="11" textLength="211" x="532.5" y="930.062">sf::Vector2f getPlayerLocation() const</text><circle cx="523.5" cy="939.656" fill="#84BE84" stroke="#038048" r="3"/><text font-family="sans-serif" font-size="11" textLength="191" x="532.5" y="942.867">sf::Vector2f getOriginalPos() const</text><circle cx="523.5" cy="952.461" fill="#84BE84" stroke="#038048" r="3"/><text font-family="sans-serif" font-size="11" textLength="213" x="532.5" y="955.671">sf::Vector2f shouldDeleteFloor(bool&amp;)</text><circle cx="523.5" cy="965.266" fill="#84BE84" stroke="#038048" r="3"/><text font-family="sans-serif" font-size="11" textLength="144" x="532.5" y="968.476">bool isNewEnemy() const</text><circle cx="523.5" cy="990.875" fill="#84BE84" stroke="#038048" r="3"/><text font-family="sans-serif" font-size="11" textLength="66" x="532.5" y="994.085">move(float)</text><circle cx="523.5" cy="1016.484" fill="#84BE84" stroke="#038048" r="3"/><text font-family="sans-serif" font-size="11" textLength="126" x="532.5" y="1019.695">handleCollision(Bar&amp; )</text><circle cx="523.5" cy="1029.289" fill="#84BE84" stroke="#038048" r="3"/><text font-family="sans-serif" font-size="11" textLength="147" x="532.5" y="1032.499">handleCollision(Enemy&amp; )</text><circle cx="523.5" cy="1042.094" fill="#84BE84" stroke="#038048" r="3"/><text font-family="sans-serif" font-size="11" textLength="127" x="532.5" y="1045.304">handleCollision(Gift&amp; )</text><circle cx="523.5" cy="1054.898" fill="#84BE84" stroke="#038048" r="3"/><text font-family="sans-serif" font-size="11" textLength="133" x="532.5" y="1058.109">handleCollision(Gold&amp; )</text><circle cx="523.5" cy="1067.703" fill="#84BE84" stroke="#038048" r="3"/><text font-family="sans-serif" font-size="11" textLength="146" x="532.5" y="1070.914">handleCollision(Ladder&amp; )</text><circle cx="523.5" cy="1080.508" fill="#84BE84" stroke="#038048" r="3"/><text font-family="sans-serif" font-size="11" textLength="142" x="532.5" y="1083.718">handleCollision(Player&amp; )</text><circle cx="523.5" cy="1093.313" fill="#84BE84" stroke="#038048" r="3"/><text font-family="sans-serif" font-size="11" textLength="131" x="532.5" y="1096.523">handleCollision(Wall&amp; )</text><circle cx="523.5" cy="1106.117" fill="#84BE84" stroke="#038048" r="3"/><text font-family="sans-serif" font-size="11" textLength="144" x="532.5" y="1109.328">handleCollision(Object&amp; )</text><circle cx="523.5" cy="1131.727" fill="#84BE84" stroke="#038048" r="3"/><text font-family="sans-serif" font-size="11" textLength="117" x="532.5" y="1134.937">void dig(sf::Vector2f)</text><path fill="#FEFECE" filter="url(#a)" stroke="#a80036" stroke-width="1.5" d="M7 1202h184v150.438H7z"/><circle cx="50.8" cy="1218" fill="#ADD1B2" stroke="#a80036" r="11"/><path d="M53.144 1213.672c-.938-.438-1.532-.578-2.407-.578-2.625 0-4.625 2.078-4.625 4.797v1.125c0 2.578 2.11 4.468 5 4.468 1.22 0 2.375-.296 3.125-.843.579-.407.907-.86.907-1.25a.864.864 0 00-.86-.844.831.831 0 00-.609.265c-.453.485-.453.485-.64.579-.422.265-1.11.39-1.876.39-2.047 0-3.343-1.093-3.343-2.797v-1.093c0-1.782 1.25-3.094 2.984-3.094.578 0 1.188.156 1.656.406.485.281.656.5.75.906.063.407.094.532.235.657.14.14.375.25.593.25a.92.92 0 00.703-.36c.11-.156.141-.343.141-.765v-1.422c0-.438-.016-.563-.11-.719a.838.838 0 00-.734-.406c-.297 0-.5.093-.718.406l-.172-.078z"/><text font-family="sans-serif" font-size="12" textLength="88" x="71.2" y="1222.154">RandomEnemy</text><path stroke="#a80036" stroke-width="1.5" d="M8 1234h182"/><circle cx="18" cy="1245" fill="none" stroke="#038048" r="3"/><text font-family="sans-serif" font-size="11" textLength="92" x="27" y="1248.21">sf::Time m_time</text><circle cx="18" cy="1257.805" fill="none" stroke="#038048" r="3"/><text font-family="sans-serif" font-size="11" textLength="95" x="27" y="1261.015">sf::Clock m_clock</text><path stroke="#a80036" stroke-width="1.5" d="M8 1267.609h182"/><circle cx="18" cy="1278.609" fill="#84BE84" stroke="#038048" r="3"/><text font-family="sans-serif" font-size="11" textLength="158" x="27" y="1281.82">RandomEnemy(sf::Vector2f)</text><circle cx="18" cy="1304.219" fill="#84BE84" stroke="#038048" r="3"/><text font-family="sans-serif" font-size="11" textLength="66" x="27" y="1307.429">move(float)</text><circle cx="18" cy="1317.023" fill="#84BE84" stroke="#038048" r="3"/><text font-family="sans-serif" font-size="11" textLength="127" x="27" y="1320.234">handleCollision(Wall&amp;)</text><circle cx="18" cy="1342.633" fill="#84BE84" stroke="#038048" r="3"/><text font-family="sans-serif" font-size="11" textLength="151" x="27" y="1345.843">void setRandomDirection()</text><path fill="#FEFECE" filter="url(#a)" stroke="#a80036" stroke-width="1.5" d="M226.5 1214.5h227v124.828h-227z"/><circle cx="293.25" cy="1230.5" fill="#ADD1B2" stroke="#a80036" r="11"/><path d="M295.594 1226.172c-.938-.438-1.531-.578-2.406-.578-2.625 0-4.625 2.078-4.625 4.797v1.125c0 2.578 2.109 4.468 5 4.468 1.218 0 2.375-.296 3.125-.843.578-.407.906-.86.906-1.25a.864.864 0 00-.86-.844.831.831 0 00-.609.265c-.453.485-.453.485-.64.579-.423.265-1.11.39-1.876.39-2.046 0-3.343-1.093-3.343-2.797v-1.093c0-1.782 1.25-3.094 2.984-3.094.578 0 1.188.156 1.656.406.485.281.656.5.75.906.063.407.094.532.235.657.14.14.375.25.593.25a.92.92 0 00.704-.36c.109-.156.14-.343.14-.765v-1.422c0-.438-.015-.563-.11-.719a.838.838 0 00-.734-.406c-.296 0-.5.093-.718.406l-.172-.078z"/><text font-family="sans-serif" font-size="12" textLength="85" x="313.75" y="1234.654">RegularEnemy</text><path stroke="#a80036" stroke-width="1.5" d="M227.5 1246.5h225"/><circle cx="237.5" cy="1257.5" fill="none" stroke="#038048" r="3"/><text font-family="sans-serif" font-size="11" textLength="149" x="246.5" y="1260.71">bool m_needToChangeDir</text><circle cx="237.5" cy="1270.305" fill="none" stroke="#038048" r="3"/><text font-family="sans-serif" font-size="11" textLength="179" x="246.5" y="1273.515">sf::Vector2f m_dirBeforeGravity</text><path stroke="#a80036" stroke-width="1.5" d="M227.5 1280.109h225"/><circle cx="237.5" cy="1291.109" fill="#84BE84" stroke="#038048" r="3"/><text font-family="sans-serif" font-size="11" textLength="155" x="246.5" y="1294.32">RegularEnemy(sf::Vector2f)</text><circle cx="237.5" cy="1316.719" fill="#84BE84" stroke="#038048" r="3"/><text font-family="sans-serif" font-size="11" textLength="128" x="246.5" y="1319.929">move(float deltaTime)</text><circle cx="237.5" cy="1329.523" fill="#84BE84" stroke="#038048" r="3"/><text font-family="sans-serif" font-size="11" textLength="201" x="246.5" y="1332.734">handleCollision(Wall&amp; gameObject)</text><path fill="#FEFECE" filter="url(#a)" stroke="#a80036" stroke-width="1.5" d="M488.5 1221h195v112.023h-195z"/><circle cx="544.25" cy="1237" fill="#ADD1B2" stroke="#a80036" r="11"/><path d="M546.594 1232.672c-.938-.438-1.532-.578-2.407-.578-2.625 0-4.625 2.078-4.625 4.797v1.125c0 2.578 2.11 4.468 5 4.468 1.22 0 2.375-.296 3.125-.843.579-.407.907-.86.907-1.25a.864.864 0 00-.86-.844.831.831 0 00-.609.265c-.453.485-.453.485-.64.579-.423.265-1.11.39-1.876.39-2.047 0-3.343-1.093-3.343-2.797v-1.093c0-1.782 1.25-3.094 2.984-3.094.578 0 1.188.156 1.656.406.485.281.657.5.75.906.063.407.094.532.235.657.14.14.375.25.593.25a.92.92 0 00.703-.36c.11-.156.141-.343.141-.765v-1.422c0-.438-.015-.563-.11-.719a.838.838 0 00-.734-.406c-.297 0-.5.093-.718.406l-.172-.078z"/><text font-family="sans-serif" font-size="12" textLength="75" x="564.75" y="1241.154">SmartEnemy</text><path stroke="#a80036" stroke-width="1.5" d="M489.5 1253h193"/><circle cx="499.5" cy="1264" fill="none" stroke="#038048" r="3"/><text font-family="sans-serif" font-size="11" textLength="149" x="508.5" y="1267.21">bool m_needToChangeDir</text><path stroke="#a80036" stroke-width="1.5" d="M489.5 1273.805h193"/><circle cx="499.5" cy="1284.805" fill="#84BE84" stroke="#038048" r="3"/><text font-family="sans-serif" font-size="11" textLength="146" x="508.5" y="1288.015">SmartEnemy(sf::Vector2f)</text><circle cx="499.5" cy="1297.609" fill="#84BE84" stroke="#038048" r="3"/><text font-family="sans-serif" font-size="11" textLength="169" x="508.5" y="1300.82">void chasePlayer(sf::Vector2f)</text><circle cx="499.5" cy="1310.414" fill="#84BE84" stroke="#038048" r="3"/><text font-family="sans-serif" font-size="11" textLength="70" x="508.5" y="1313.624">move(float )</text><circle cx="499.5" cy="1323.219" fill="#84BE84" stroke="#038048" r="3"/><text font-family="sans-serif" font-size="11" textLength="131" x="508.5" y="1326.429">handleCollision(Wall&amp; )</text><path fill="#FEFECE" filter="url(#a)" stroke="#a80036" stroke-width="1.5" d="M1108 422.5h178v227.266h-178z"/><circle cx="1156.25" cy="438.5" fill="#ADD1B2" stroke="#a80036" r="11"/><path d="M1158.594 434.172c-.938-.438-1.532-.578-2.407-.578-2.624 0-4.624 2.078-4.624 4.797v1.125c0 2.578 2.109 4.468 5 4.468 1.218 0 2.374-.296 3.124-.843.579-.407.907-.86.907-1.25a.864.864 0 00-.86-.844.831.831 0 00-.609.265c-.453.485-.453.485-.64.579-.422.265-1.11.39-1.876.39-2.046 0-3.343-1.094-3.343-2.797v-1.093c0-1.782 1.25-3.094 2.984-3.094.578 0 1.188.156 1.656.406.485.281.657.5.75.906.063.407.094.532.235.657.14.14.375.25.593.25a.92.92 0 00.704-.36c.109-.156.14-.344.14-.765v-1.422c0-.438-.015-.563-.11-.719a.838.838 0 00-.734-.406c-.296 0-.5.094-.718.406l-.172-.078z"/><text font-family="sans-serif" font-size="12" textLength="73" x="1176.75" y="442.654">StaticObject</text><path stroke="#a80036" stroke-width="1.5" d="M1109 454.5h176"/><circle cx="1119" cy="465.5" fill="none" stroke="#038048" r="3"/><text font-family="sans-serif" font-size="11" textLength="152" x="1128" y="468.71">bool m_isDisposed = false</text><circle cx="1119" cy="491.109" fill="none" stroke="#038048" r="3"/><text font-family="sans-serif" font-size="11" textLength="92" x="1128" y="494.32">sf::Time m_time</text><circle cx="1119" cy="503.914" fill="none" stroke="#038048" r="3"/><text font-family="sans-serif" font-size="11" textLength="95" x="1128" y="507.125">sf::Clock m_clock</text><path stroke="#a80036" stroke-width="1.5" d="M1109 513.719h176"/><circle cx="1119" cy="524.719" fill="#84BE84" stroke="#038048" r="3"/><text font-family="sans-serif" font-size="11" textLength="132" x="1128" y="527.929">bool isDisposed() const</text><circle cx="1119" cy="537.523" fill="#84BE84" stroke="#038048" r="3"/><text font-family="sans-serif" font-size="11" textLength="78" x="1128" y="540.734">void hideMe()</text><circle cx="1119" cy="550.328" fill="#84BE84" stroke="#038048" r="3"/><text font-family="sans-serif" font-size="11" textLength="126" x="1128" y="553.539">void checkForUnhide()</text><circle cx="1119" cy="575.938" fill="#84BE84" stroke="#038048" r="3"/><text font-family="sans-serif" font-size="11" textLength="144" x="1128" y="579.148">handleCollision(Object&amp; )</text><circle cx="1119" cy="588.742" fill="#84BE84" stroke="#038048" r="3"/><text font-family="sans-serif" font-size="11" textLength="131" x="1128" y="591.953">handleCollision(Wall&amp; )</text><circle cx="1119" cy="601.547" fill="#84BE84" stroke="#038048" r="3"/><text font-family="sans-serif" font-size="11" textLength="127" x="1128" y="604.757">handleCollision(Gift&amp; )</text><circle cx="1119" cy="614.352" fill="#84BE84" stroke="#038048" r="3"/><text font-family="sans-serif" font-size="11" textLength="133" x="1128" y="617.562">handleCollision(Gold&amp; )</text><circle cx="1119" cy="627.156" fill="#84BE84" stroke="#038048" r="3"/><text font-family="sans-serif" font-size="11" textLength="126" x="1128" y="630.367">handleCollision(Bar&amp; )</text><circle cx="1119" cy="639.961" fill="#84BE84" stroke="#038048" r="3"/><text font-family="sans-serif" font-size="11" textLength="146" x="1128" y="643.171">handleCollision(Ladder&amp; )</text><path fill="#FEFECE" filter="url(#a)" stroke="#a80036" stroke-width="1.5" d="M1637 876h198v124.828h-198z"/><circle cx="1719.25" cy="892" fill="#ADD1B2" stroke="#a80036" r="11"/><path d="M1721.594 887.672c-.938-.438-1.532-.578-2.407-.578-2.624 0-4.624 2.078-4.624 4.797v1.125c0 2.578 2.109 4.468 5 4.468 1.218 0 2.374-.297 3.124-.843.579-.407.907-.86.907-1.25a.864.864 0 00-.86-.844.831.831 0 00-.609.265c-.453.485-.453.485-.64.579-.422.265-1.11.39-1.876.39-2.046 0-3.343-1.093-3.343-2.797v-1.093c0-1.782 1.25-3.094 2.984-3.094.578 0 1.188.156 1.656.406.485.281.657.5.75.906.063.407.094.532.235.657.14.14.375.25.593.25a.92.92 0 00.704-.36c.109-.156.14-.343.14-.765v-1.422c0-.438-.015-.563-.11-.719a.838.838 0 00-.734-.406c-.296 0-.5.093-.718.406l-.172-.078z"/><text font-family="sans-serif" font-size="12" textLength="25" x="1739.75" y="896.154">Wall</text><path stroke="#a80036" stroke-width="1.5" d="M1638 908h196M1638 916h196"/><circle cx="1648" cy="927" fill="#84BE84" stroke="#038048" r="3"/><text font-family="sans-serif" font-size="11" textLength="96" x="1657" y="930.21">Wall(sf::Vector2f)</text><circle cx="1648" cy="952.609" fill="#84BE84" stroke="#038048" r="3"/><text font-family="sans-serif" font-size="11" textLength="172" x="1657" y="955.82">sf::Vector2f getWallPos() const</text><circle cx="1648" cy="978.219" fill="#84BE84" stroke="#038048" r="3"/><text font-family="sans-serif" font-size="11" textLength="147" x="1657" y="981.429">handleCollision(Enemy&amp; )</text><circle cx="1648" cy="991.023" fill="#84BE84" stroke="#038048" r="3"/><text font-family="sans-serif" font-size="11" textLength="142" x="1657" y="994.234">handleCollision(Player&amp; )</text><path d="M773.729 353.064l-38.661 49.629M768.388 348.53l17.814-11.48-6.769 20.083-11.045-8.603zM632 695.324v39.551M625 695.11l7-20 7 20h-14zM519.43 691.398l-92.513 126.889M513.867 687.147l17.439-12.037-6.127 20.284-11.312-8.247zM439.044 1074.981l106.5 145.68M433.229 1078.888l-6.152-20.277 17.454 12.014-11.302 8.263zM340 1078.921v135.297M333 1078.611l7-20 7 20h-14zM242.956 1074.999l-90.683 126.618M237.357 1070.795l17.336-12.184-5.954 20.336-11.382-8.152zM1054.69 352.961c18.46 23.612 36.93 47.247 54.17 69.299M1049.05 357.121l-6.8-20.071 17.83 11.45-11.03 8.621zM1233.24 668.953c20.71 75.409 45.46 165.497 60.37 219.805M1226.48 670.767l1.45-21.14 12.05 17.432-13.5 3.708zM1305.73 567.7c92.06 30.387 223.07 84.477 313.27 167.3 42.47 38.995 73.82 97.035 93.32 140.994M1303.31 574.275l-16.89-12.792 21.18-.535-4.29 13.327zM1092.21 615.391C1051.65 649.166 1006.927 690.993 973 735c-38.695 50.192-69.062 117.345-86.272 160.274M1087.9 609.871l19.91-7.253-11.04 18.086-8.87-10.833zM1301.35 620.301c37.46 33.143 78.18 73.242 109.65 114.699 36.56 48.162 66.57 111.087 84.8 153.925M1296.58 625.424l-10.49-18.412 19.68 7.853-9.19 10.559zM1161.09 668.935c-18.98 69.755-41.39 152.076-56.34 207.017M1154.34 667.087l12.01-17.46 1.5 21.137-13.51-3.677zM1126.49 1019.441c32.38 67.269 77.42 160.821 103.21 214.388M1120.08 1022.276l-2.37-21.057 14.99 14.984-12.62 6.073z" fill="none" stroke="#a80036"/><path d="M1118.29 1019.597c19.01 41.192 47.1 89.513 84.71 122.403 53.74 46.996 86.61 25.301 149 60 16.53 9.192 33.49 20.683 48.67 31.849M1111.87 1022.377l-1.67-21.123 14.48 15.472-12.81 5.651zM1078.05 1021.171l-25.91 212.658M1071.11 1020.226l9.37-19.007 4.53 20.7-13.9-1.693zM1048.66 1019.266c-20.45 38.498-47.114 84.509-75.66 122.734-24.732 33.118-56.982 66.618-83.049 91.839M1042.57 1015.805l15.47-14.485-3.06 20.968-12.41-6.483z" fill="none" stroke="#a80036"/></svg>